<svg width="32" height="32" viewBox="0 0 96 96" fill="none" xmlns="https://www.w3.org/2000/svg">
  <rect width="96" height="96" rx="22" fill="#0B0A08" />
  <circle cx="48" cy="48" r="40" stroke="#C8A45A" stroke-opacity="0.45" stroke-width="3" />
  <circle cx="48" cy="48" r="29" stroke="#C8A45A" stroke-opacity="0.75" stroke-width="2.4" />
  <g fill="#C8A45A">
    <path
      d="M48 20c7.4 0 13.4 6 13.4 13.4 0 7.2-5.8 13.2-13 13.4 2.9-3.5 4.7-8 4.7-12.9C53.1 28.7 51 23.8 48 20Z"
      opacity="0.95"
    />
    <path
      d="M76 48c0 7.4-6 13.4-13.4 13.4-7.2 0-13.2-5.8-13.4-13 3.5 2.9 8 4.7 12.9 4.7 5.2 0 10.1-2.1 13.9-5.1Z"
      opacity="0.95"
    />
    <path
      d="M48 76c-7.4 0-13.4-6-13.4-13.4 0-7.2 5.8-13.2 13-13.4-2.9 3.5-4.7 8-4.7 12.9 0 5.2 2.1 10.1 5.1 13.9Z"
      opacity="0.95"
    />
    <path
      d="M20 48c0-7.4 6-13.4 13.4-13.4 7.2 0 13.2 5.8 13.4 13-3.5-2.9-8-4.7-12.9-4.7-5.2 0-10.1 2.1-13.9 5.1Z"
      opacity="0.95"
    />
    <path d="M48 31c9.8 0 17.6 7.9 17.6 17.6S57.8 66.2 48 66.2 30.4 58.3 30.4 48.6 38.3 31 48 31Z" opacity="0.12" />
    <path d="M48 38.2c5.6 0 10.2 4.6 10.2 10.2S53.6 58.6 48 58.6 37.8 54 37.8 48.4 42.4 38.2 48 38.2Z" opacity="0.62" />
  </g>
  <circle cx="48" cy="48" r="2.4" fill="#C8A45A" />
</svg>
